<svg aria-hidden="true" style="position:absolute;width:0;height:0;overflow:hidden" xmlns="http://www.w3.org/2000/svg"><defs><symbol id="icon-angle-right" viewBox="0 0 16 32"><path fill="#fff" style="fill:var(--color1, #fff)" d="m14.019 17.062-8.5 8.5a1.493 1.493 0 0 1-2.119 0L1.987 24.15a1.495 1.495 0 0 1 0-2.119l6.025-6.025-6.025-6.025a1.495 1.495 0 0 1 0-2.119l1.406-1.425a1.493 1.493 0 0 1 2.119 0l8.5 8.5c.594.588.594 1.538.006 2.125z"/></symbol><symbol id="icon-logo_book-open" viewBox="0 0 37 32"><path fill="#28a745" style="fill:var(--color2, #28a745)" d="M33.831 3.661c-3.419.194-10.215.902-14.41 3.474a.961.961 0 0 0-.454.823V30.7c0 .722.788 1.178 1.453.843 4.316-2.176 10.559-2.77 13.645-2.932 1.054-.056 1.873-.902 1.873-1.916V5.58c.001-1.107-.958-1.984-2.107-1.919zM16.517 7.135C12.322 4.563 5.526 3.856 2.107 3.661.958 3.596-.001 4.473-.001 5.58v21.116c0 1.015.819 1.861 1.873 1.916 3.088.162 9.333.757 13.65 2.934.663.334 1.448-.121 1.448-.841V7.947a.94.94 0 0 0-.454-.812z"/></symbol></defs></svg>